<?xml version="1.0" encoding="UTF-8" standalone="no"?>
<!DOCTYPE svg PUBLIC "-//W3C//DTD SVG 1.1//EN"
 "http://www.w3.org/Graphics/SVG/1.1/DTD/svg11.dtd">
<!-- Generated by graphviz version 2.42.3 (20191010.1750)
 -->
<!-- Title: snakemake_dag Pages: 1 -->
<svg width="142pt" height="188pt"
 viewBox="0.00 0.00 141.50 188.00" xmlns="http://www.w3.org/2000/svg" xmlns:xlink="http://www.w3.org/1999/xlink">
<g id="graph0" class="graph" transform="scale(1 1) rotate(0) translate(4 184)">
<title>snakemake_dag</title>
<polygon fill="white" stroke="transparent" points="-4,4 -4,-184 137.5,-184 137.5,4 -4,4"/>
<!-- 0 -->
<g id="node1" class="node">
<title>0</title>
<path fill="none" stroke="#d85656" stroke-width="2" d="M67,-36C67,-36 37,-36 37,-36 31,-36 25,-30 25,-24 25,-24 25,-12 25,-12 25,-6 31,0 37,0 37,0 67,0 67,0 73,0 79,-6 79,-12 79,-12 79,-24 79,-24 79,-30 73,-36 67,-36"/>
<text text-anchor="middle" x="52" y="-15.5" font-family="sans" font-size="10.00">all</text>
</g>
<!-- 1 -->
<g id="node2" class="node">
<title>1</title>
<path fill="none" stroke="#78d856" stroke-width="2" stroke-dasharray="5,2" d="M92,-180C92,-180 12,-180 12,-180 6,-180 0,-174 0,-168 0,-168 0,-156 0,-156 0,-150 6,-144 12,-144 12,-144 92,-144 92,-144 98,-144 104,-150 104,-156 104,-156 104,-168 104,-168 104,-174 98,-180 92,-180"/>
<text text-anchor="middle" x="52" y="-165" font-family="sans" font-size="10.00">assemble</text>
<text text-anchor="middle" x="52" y="-154" font-family="sans" font-size="10.00">sample: NTM01067</text>
</g>
<!-- 1&#45;&gt;0 -->
<g id="edge1" class="edge">
<title>1&#45;&gt;0</title>
<path fill="none" stroke="grey" stroke-width="2" d="M44.93,-143.67C41.16,-133.47 36.91,-120.22 35,-108 32.53,-92.19 32.53,-87.81 35,-72 36.36,-63.31 38.9,-54.1 41.61,-45.84"/>
<polygon fill="grey" stroke="grey" stroke-width="2" points="44.94,-46.93 44.93,-36.33 38.33,-44.62 44.94,-46.93"/>
</g>
<!-- 2 -->
<g id="node3" class="node">
<title>2</title>
<path fill="none" stroke="#56a2d8" stroke-width="2" d="M121.5,-108C121.5,-108 56.5,-108 56.5,-108 50.5,-108 44.5,-102 44.5,-96 44.5,-96 44.5,-84 44.5,-84 44.5,-78 50.5,-72 56.5,-72 56.5,-72 121.5,-72 121.5,-72 127.5,-72 133.5,-78 133.5,-84 133.5,-84 133.5,-96 133.5,-96 133.5,-102 127.5,-108 121.5,-108"/>
<text text-anchor="middle" x="89" y="-87.5" font-family="sans" font-size="10.00">parse_assembly</text>
</g>
<!-- 1&#45;&gt;2 -->
<g id="edge3" class="edge">
<title>1&#45;&gt;2</title>
<path fill="none" stroke="grey" stroke-width="2" d="M61.15,-143.7C65.4,-135.64 70.56,-125.89 75.27,-116.98"/>
<polygon fill="grey" stroke="grey" stroke-width="2" points="78.38,-118.58 79.96,-108.1 72.19,-115.31 78.38,-118.58"/>
</g>
<!-- 2&#45;&gt;0 -->
<g id="edge2" class="edge">
<title>2&#45;&gt;0</title>
<path fill="none" stroke="grey" stroke-width="2" d="M79.85,-71.7C75.6,-63.64 70.44,-53.89 65.73,-44.98"/>
<polygon fill="grey" stroke="grey" stroke-width="2" points="68.81,-43.31 61.04,-36.1 62.62,-46.58 68.81,-43.31"/>
</g>
</g>
</svg>
