<?xml version="1.0" encoding="UTF-8" standalone="no"?>
<!DOCTYPE svg PUBLIC "-//W3C//DTD SVG 1.1//EN"
 "http://www.w3.org/Graphics/SVG/1.1/DTD/svg11.dtd">
<!-- Generated by graphviz version 2.42.3 (20191010.1750)
 -->
<!-- Title: snakemake_dag Pages: 1 -->
<svg width="206pt" height="260pt"
 viewBox="0.00 0.00 206.00 260.00" xmlns="http://www.w3.org/2000/svg" xmlns:xlink="http://www.w3.org/1999/xlink">
<g id="graph0" class="graph" transform="scale(1 1) rotate(0) translate(4 256)">
<title>snakemake_dag</title>
<polygon fill="white" stroke="transparent" points="-4,4 -4,-256 202,-256 202,4 -4,4"/>
<!-- 0 -->
<g id="node1" class="node">
<title>0</title>
<path fill="none" stroke="#56a9d8" stroke-width="2" d="M114,-36C114,-36 84,-36 84,-36 78,-36 72,-30 72,-24 72,-24 72,-12 72,-12 72,-6 78,0 84,0 84,0 114,0 114,0 120,0 126,-6 126,-12 126,-12 126,-24 126,-24 126,-30 120,-36 114,-36"/>
<text text-anchor="middle" x="99" y="-15.5" font-family="sans" font-size="10.00">all</text>
</g>
<!-- 1 -->
<g id="node2" class="node">
<title>1</title>
<path fill="none" stroke="#56d8a9" stroke-width="2" d="M116.5,-108C116.5,-108 81.5,-108 81.5,-108 75.5,-108 69.5,-102 69.5,-96 69.5,-96 69.5,-84 69.5,-84 69.5,-78 75.5,-72 81.5,-72 81.5,-72 116.5,-72 116.5,-72 122.5,-72 128.5,-78 128.5,-84 128.5,-84 128.5,-96 128.5,-96 128.5,-102 122.5,-108 116.5,-108"/>
<text text-anchor="middle" x="99" y="-87.5" font-family="sans" font-size="10.00">assemble</text>
</g>
<!-- 1&#45;&gt;0 -->
<g id="edge1" class="edge">
<title>1&#45;&gt;0</title>
<path fill="none" stroke="grey" stroke-width="2" d="M99,-71.7C99,-63.98 99,-54.71 99,-46.11"/>
<polygon fill="grey" stroke="grey" stroke-width="2" points="102.5,-46.1 99,-36.1 95.5,-46.1 102.5,-46.1"/>
</g>
<!-- 2 -->
<g id="node3" class="node">
<title>2</title>
<path fill="none" stroke="#d85656" stroke-width="2" d="M78,-180C78,-180 12,-180 12,-180 6,-180 0,-174 0,-168 0,-168 0,-156 0,-156 0,-150 6,-144 12,-144 12,-144 78,-144 78,-144 84,-144 90,-150 90,-156 90,-156 90,-168 90,-168 90,-174 84,-180 78,-180"/>
<text text-anchor="middle" x="45" y="-159.5" font-family="sans" font-size="10.00">merge_r1_reads</text>
</g>
<!-- 2&#45;&gt;1 -->
<g id="edge2" class="edge">
<title>2&#45;&gt;1</title>
<path fill="none" stroke="grey" stroke-width="2" d="M58.35,-143.7C64.76,-135.39 72.56,-125.28 79.61,-116.14"/>
<polygon fill="grey" stroke="grey" stroke-width="2" points="82.47,-118.16 85.81,-108.1 76.93,-113.88 82.47,-118.16"/>
</g>
<!-- 3 -->
<g id="node4" class="node">
<title>3</title>
<path fill="none" stroke="#59d856" stroke-width="2" d="M139,-252C139,-252 59,-252 59,-252 53,-252 47,-246 47,-240 47,-240 47,-228 47,-228 47,-222 53,-216 59,-216 59,-216 139,-216 139,-216 145,-216 151,-222 151,-228 151,-228 151,-240 151,-240 151,-246 145,-252 139,-252"/>
<text text-anchor="middle" x="99" y="-237" font-family="sans" font-size="10.00">first_fastp</text>
<text text-anchor="middle" x="99" y="-226" font-family="sans" font-size="10.00">sample: NTM01067</text>
</g>
<!-- 3&#45;&gt;2 -->
<g id="edge4" class="edge">
<title>3&#45;&gt;2</title>
<path fill="none" stroke="grey" stroke-width="2" d="M85.65,-215.7C79.24,-207.39 71.44,-197.28 64.39,-188.14"/>
<polygon fill="grey" stroke="grey" stroke-width="2" points="67.07,-185.88 58.19,-180.1 61.53,-190.16 67.07,-185.88"/>
</g>
<!-- 4 -->
<g id="node5" class="node">
<title>4</title>
<path fill="none" stroke="#d8ac56" stroke-width="2" d="M186,-180C186,-180 120,-180 120,-180 114,-180 108,-174 108,-168 108,-168 108,-156 108,-156 108,-150 114,-144 120,-144 120,-144 186,-144 186,-144 192,-144 198,-150 198,-156 198,-156 198,-168 198,-168 198,-174 192,-180 186,-180"/>
<text text-anchor="middle" x="153" y="-159.5" font-family="sans" font-size="10.00">merge_r2_reads</text>
</g>
<!-- 3&#45;&gt;4 -->
<g id="edge5" class="edge">
<title>3&#45;&gt;4</title>
<path fill="none" stroke="grey" stroke-width="2" d="M112.35,-215.7C118.76,-207.39 126.56,-197.28 133.61,-188.14"/>
<polygon fill="grey" stroke="grey" stroke-width="2" points="136.47,-190.16 139.81,-180.1 130.93,-185.88 136.47,-190.16"/>
</g>
<!-- 4&#45;&gt;1 -->
<g id="edge3" class="edge">
<title>4&#45;&gt;1</title>
<path fill="none" stroke="grey" stroke-width="2" d="M139.65,-143.7C133.24,-135.39 125.44,-125.28 118.39,-116.14"/>
<polygon fill="grey" stroke="grey" stroke-width="2" points="121.07,-113.88 112.19,-108.1 115.53,-118.16 121.07,-113.88"/>
</g>
</g>
</svg>
