<?xml version="1.0" encoding="UTF-8" standalone="no"?>
<!DOCTYPE svg PUBLIC "-//W3C//DTD SVG 1.1//EN"
 "http://www.w3.org/Graphics/SVG/1.1/DTD/svg11.dtd">
<!-- Generated by graphviz version 2.42.3 (20191010.1750)
 -->
<!-- Title: snakemake_dag Pages: 1 -->
<svg width="845pt" height="332pt"
 viewBox="0.00 0.00 844.50 332.00" xmlns="http://www.w3.org/2000/svg" xmlns:xlink="http://www.w3.org/1999/xlink">
<g id="graph0" class="graph" transform="scale(1 1) rotate(0) translate(4 328)">
<title>snakemake_dag</title>
<polygon fill="white" stroke="transparent" points="-4,4 -4,-328 840.5,-328 840.5,4 -4,4"/>
<!-- 0 -->
<g id="node1" class="node">
<title>0</title>
<path fill="none" stroke="#d85656" stroke-width="2" d="M431,-36C431,-36 401,-36 401,-36 395,-36 389,-30 389,-24 389,-24 389,-12 389,-12 389,-6 395,0 401,0 401,0 431,0 431,0 437,0 443,-6 443,-12 443,-12 443,-24 443,-24 443,-30 437,-36 431,-36"/>
<text text-anchor="middle" x="416" y="-15.5" font-family="sans" font-size="10.00">all</text>
</g>
<!-- 1 -->
<g id="node2" class="node">
<title>1</title>
<path fill="none" stroke="#56c9d8" stroke-width="2" d="M182,-324C182,-324 12,-324 12,-324 6,-324 0,-318 0,-312 0,-312 0,-300 0,-300 0,-294 6,-288 12,-288 12,-288 182,-288 182,-288 188,-288 194,-294 194,-300 194,-300 194,-312 194,-312 194,-318 188,-324 182,-324"/>
<text text-anchor="middle" x="97" y="-309" font-family="sans" font-size="10.00">ftp_first</text>
<text text-anchor="middle" x="97" y="-298" font-family="sans" font-size="10.00">file_f: NTM01067_S99_R1_001.fastq.gz</text>
</g>
<!-- 1&#45;&gt;0 -->
<g id="edge1" class="edge">
<title>1&#45;&gt;0</title>
<path fill="none" stroke="grey" stroke-width="2" d="M110.96,-287.99C144.88,-247.34 235.49,-142.7 326,-72 342.64,-59 362.76,-46.86 379.75,-37.49"/>
<polygon fill="grey" stroke="grey" stroke-width="2" points="381.7,-40.42 388.83,-32.58 378.37,-34.26 381.7,-40.42"/>
</g>
<!-- 7 -->
<g id="node8" class="node">
<title>7</title>
<path fill="none" stroke="#56d8a9" stroke-width="2" d="M395,-252C395,-252 315,-252 315,-252 309,-252 303,-246 303,-240 303,-240 303,-228 303,-228 303,-222 309,-216 315,-216 315,-216 395,-216 395,-216 401,-216 407,-222 407,-228 407,-228 407,-240 407,-240 407,-246 401,-252 395,-252"/>
<text text-anchor="middle" x="355" y="-237" font-family="sans" font-size="10.00">first_fastp</text>
<text text-anchor="middle" x="355" y="-226" font-family="sans" font-size="10.00">sample: NTM01067</text>
</g>
<!-- 1&#45;&gt;7 -->
<g id="edge10" class="edge">
<title>1&#45;&gt;7</title>
<path fill="none" stroke="grey" stroke-width="2" d="M159.78,-287.97C200.3,-276.97 252.76,-262.74 293.1,-251.79"/>
<polygon fill="grey" stroke="grey" stroke-width="2" points="294.08,-255.16 302.82,-249.16 292.25,-248.4 294.08,-255.16"/>
</g>
<!-- 2 -->
<g id="node3" class="node">
<title>2</title>
<path fill="none" stroke="#56c9d8" stroke-width="2" d="M394,-324C394,-324 224,-324 224,-324 218,-324 212,-318 212,-312 212,-312 212,-300 212,-300 212,-294 218,-288 224,-288 224,-288 394,-288 394,-288 400,-288 406,-294 406,-300 406,-300 406,-312 406,-312 406,-318 400,-324 394,-324"/>
<text text-anchor="middle" x="309" y="-309" font-family="sans" font-size="10.00">ftp_first</text>
<text text-anchor="middle" x="309" y="-298" font-family="sans" font-size="10.00">file_f: NTM01067_S99_R2_001.fastq.gz</text>
</g>
<!-- 2&#45;&gt;0 -->
<g id="edge2" class="edge">
<title>2&#45;&gt;0</title>
<path fill="none" stroke="grey" stroke-width="2" d="M302.76,-287.59C299.43,-277.37 295.68,-264.12 294,-252 287.35,-204.06 286.85,-187.53 308,-144 327.45,-103.96 363.01,-66.53 388,-43.26"/>
<polygon fill="grey" stroke="grey" stroke-width="2" points="390.69,-45.54 395.71,-36.21 385.97,-40.37 390.69,-45.54"/>
</g>
<!-- 2&#45;&gt;7 -->
<g id="edge11" class="edge">
<title>2&#45;&gt;7</title>
<path fill="none" stroke="grey" stroke-width="2" d="M320.37,-287.7C325.72,-279.56 332.2,-269.69 338.11,-260.7"/>
<polygon fill="grey" stroke="grey" stroke-width="2" points="341.19,-262.38 343.76,-252.1 335.34,-258.54 341.19,-262.38"/>
</g>
<!-- 3 -->
<g id="node4" class="node">
<title>3</title>
<path fill="none" stroke="#d8cb56" stroke-width="2" d="M609.5,-324C609.5,-324 436.5,-324 436.5,-324 430.5,-324 424.5,-318 424.5,-312 424.5,-312 424.5,-300 424.5,-300 424.5,-294 430.5,-288 436.5,-288 436.5,-288 609.5,-288 609.5,-288 615.5,-288 621.5,-294 621.5,-300 621.5,-300 621.5,-312 621.5,-312 621.5,-318 615.5,-324 609.5,-324"/>
<text text-anchor="middle" x="523" y="-309" font-family="sans" font-size="10.00">ftp_second</text>
<text text-anchor="middle" x="523" y="-298" font-family="sans" font-size="10.00">file_s: NTM01067_S82_R1_001.fastq.gz</text>
</g>
<!-- 3&#45;&gt;0 -->
<g id="edge3" class="edge">
<title>3&#45;&gt;0</title>
<path fill="none" stroke="grey" stroke-width="2" d="M529.24,-287.59C532.57,-277.37 536.32,-264.12 538,-252 544.65,-204.06 545.15,-187.53 524,-144 504.55,-103.96 468.99,-66.53 444,-43.26"/>
<polygon fill="grey" stroke="grey" stroke-width="2" points="446.03,-40.37 436.29,-36.21 441.31,-45.54 446.03,-40.37"/>
</g>
<!-- 8 -->
<g id="node9" class="node">
<title>8</title>
<path fill="none" stroke="#d88d56" stroke-width="2" d="M517,-252C517,-252 437,-252 437,-252 431,-252 425,-246 425,-240 425,-240 425,-228 425,-228 425,-222 431,-216 437,-216 437,-216 517,-216 517,-216 523,-216 529,-222 529,-228 529,-228 529,-240 529,-240 529,-246 523,-252 517,-252"/>
<text text-anchor="middle" x="477" y="-237" font-family="sans" font-size="10.00">second_fastp</text>
<text text-anchor="middle" x="477" y="-226" font-family="sans" font-size="10.00">sample: NTM01067</text>
</g>
<!-- 3&#45;&gt;8 -->
<g id="edge12" class="edge">
<title>3&#45;&gt;8</title>
<path fill="none" stroke="grey" stroke-width="2" d="M511.63,-287.7C506.28,-279.56 499.8,-269.69 493.89,-260.7"/>
<polygon fill="grey" stroke="grey" stroke-width="2" points="496.66,-258.54 488.24,-252.1 490.81,-262.38 496.66,-258.54"/>
</g>
<!-- 4 -->
<g id="node5" class="node">
<title>4</title>
<path fill="none" stroke="#d8cb56" stroke-width="2" d="M824.5,-324C824.5,-324 651.5,-324 651.5,-324 645.5,-324 639.5,-318 639.5,-312 639.5,-312 639.5,-300 639.5,-300 639.5,-294 645.5,-288 651.5,-288 651.5,-288 824.5,-288 824.5,-288 830.5,-288 836.5,-294 836.5,-300 836.5,-300 836.5,-312 836.5,-312 836.5,-318 830.5,-324 824.5,-324"/>
<text text-anchor="middle" x="738" y="-309" font-family="sans" font-size="10.00">ftp_second</text>
<text text-anchor="middle" x="738" y="-298" font-family="sans" font-size="10.00">file_s: NTM01067_S82_R2_001.fastq.gz</text>
</g>
<!-- 4&#45;&gt;0 -->
<g id="edge4" class="edge">
<title>4&#45;&gt;0</title>
<path fill="none" stroke="grey" stroke-width="2" d="M723.03,-287.9C687.19,-247.5 592.56,-144.12 501,-72 485.7,-59.95 467.51,-48.29 451.9,-39"/>
<polygon fill="grey" stroke="grey" stroke-width="2" points="453.44,-35.85 443.04,-33.81 449.9,-41.89 453.44,-35.85"/>
</g>
<!-- 4&#45;&gt;8 -->
<g id="edge13" class="edge">
<title>4&#45;&gt;8</title>
<path fill="none" stroke="grey" stroke-width="2" d="M674.49,-287.97C633.36,-276.94 580.07,-262.64 539.21,-251.68"/>
<polygon fill="grey" stroke="grey" stroke-width="2" points="539.93,-248.25 529.37,-249.04 538.12,-255.02 539.93,-248.25"/>
</g>
<!-- 5 -->
<g id="node6" class="node">
<title>5</title>
<path fill="none" stroke="#56d873" stroke-width="2" d="M433.5,-108C433.5,-108 398.5,-108 398.5,-108 392.5,-108 386.5,-102 386.5,-96 386.5,-96 386.5,-84 386.5,-84 386.5,-78 392.5,-72 398.5,-72 398.5,-72 433.5,-72 433.5,-72 439.5,-72 445.5,-78 445.5,-84 445.5,-84 445.5,-96 445.5,-96 445.5,-102 439.5,-108 433.5,-108"/>
<text text-anchor="middle" x="416" y="-87.5" font-family="sans" font-size="10.00">assemble</text>
</g>
<!-- 5&#45;&gt;0 -->
<g id="edge5" class="edge">
<title>5&#45;&gt;0</title>
<path fill="none" stroke="grey" stroke-width="2" d="M416,-71.7C416,-63.98 416,-54.71 416,-46.11"/>
<polygon fill="grey" stroke="grey" stroke-width="2" points="419.5,-46.1 416,-36.1 412.5,-46.1 419.5,-46.1"/>
</g>
<!-- 6 -->
<g id="node7" class="node">
<title>6</title>
<path fill="none" stroke="#afd856" stroke-width="2" d="M503,-180C503,-180 437,-180 437,-180 431,-180 425,-174 425,-168 425,-168 425,-156 425,-156 425,-150 431,-144 437,-144 437,-144 503,-144 503,-144 509,-144 515,-150 515,-156 515,-156 515,-168 515,-168 515,-174 509,-180 503,-180"/>
<text text-anchor="middle" x="470" y="-159.5" font-family="sans" font-size="10.00">merge_r1_reads</text>
</g>
<!-- 6&#45;&gt;5 -->
<g id="edge6" class="edge">
<title>6&#45;&gt;5</title>
<path fill="none" stroke="grey" stroke-width="2" d="M456.65,-143.7C450.24,-135.39 442.44,-125.28 435.39,-116.14"/>
<polygon fill="grey" stroke="grey" stroke-width="2" points="438.07,-113.88 429.19,-108.1 432.53,-118.16 438.07,-113.88"/>
</g>
<!-- 7&#45;&gt;6 -->
<g id="edge8" class="edge">
<title>7&#45;&gt;6</title>
<path fill="none" stroke="grey" stroke-width="2" d="M383.13,-215.88C398.17,-206.72 416.87,-195.34 433.06,-185.48"/>
<polygon fill="grey" stroke="grey" stroke-width="2" points="435.04,-188.38 441.76,-180.19 431.4,-182.4 435.04,-188.38"/>
</g>
<!-- 9 -->
<g id="node10" class="node">
<title>9</title>
<path fill="none" stroke="#70d856" stroke-width="2" d="M395,-180C395,-180 329,-180 329,-180 323,-180 317,-174 317,-168 317,-168 317,-156 317,-156 317,-150 323,-144 329,-144 329,-144 395,-144 395,-144 401,-144 407,-150 407,-156 407,-156 407,-168 407,-168 407,-174 401,-180 395,-180"/>
<text text-anchor="middle" x="362" y="-159.5" font-family="sans" font-size="10.00">merge_r2_reads</text>
</g>
<!-- 7&#45;&gt;9 -->
<g id="edge14" class="edge">
<title>7&#45;&gt;9</title>
<path fill="none" stroke="grey" stroke-width="2" d="M356.73,-215.7C357.5,-207.98 358.43,-198.71 359.29,-190.11"/>
<polygon fill="grey" stroke="grey" stroke-width="2" points="362.78,-190.4 360.29,-180.1 355.81,-189.71 362.78,-190.4"/>
</g>
<!-- 8&#45;&gt;6 -->
<g id="edge9" class="edge">
<title>8&#45;&gt;6</title>
<path fill="none" stroke="grey" stroke-width="2" d="M475.27,-215.7C474.5,-207.98 473.57,-198.71 472.71,-190.11"/>
<polygon fill="grey" stroke="grey" stroke-width="2" points="476.19,-189.71 471.71,-180.1 469.22,-190.4 476.19,-189.71"/>
</g>
<!-- 8&#45;&gt;9 -->
<g id="edge15" class="edge">
<title>8&#45;&gt;9</title>
<path fill="none" stroke="grey" stroke-width="2" d="M448.87,-215.88C433.83,-206.72 415.13,-195.34 398.94,-185.48"/>
<polygon fill="grey" stroke="grey" stroke-width="2" points="400.6,-182.4 390.24,-180.19 396.96,-188.38 400.6,-182.4"/>
</g>
<!-- 9&#45;&gt;5 -->
<g id="edge7" class="edge">
<title>9&#45;&gt;5</title>
<path fill="none" stroke="grey" stroke-width="2" d="M375.35,-143.7C381.76,-135.39 389.56,-125.28 396.61,-116.14"/>
<polygon fill="grey" stroke="grey" stroke-width="2" points="399.47,-118.16 402.81,-108.1 393.93,-113.88 399.47,-118.16"/>
</g>
</g>
</svg>
