<?xml version="1.0" encoding="UTF-8" standalone="no"?>
<!DOCTYPE svg PUBLIC "-//W3C//DTD SVG 1.1//EN"
 "http://www.w3.org/Graphics/SVG/1.1/DTD/svg11.dtd">
<!-- Generated by graphviz version 2.42.3 (20191010.1750)
 -->
<!-- Title: snakemake_dag Pages: 1 -->
<svg width="845pt" height="404pt"
 viewBox="0.00 0.00 844.50 404.00" xmlns="http://www.w3.org/2000/svg" xmlns:xlink="http://www.w3.org/1999/xlink">
<g id="graph0" class="graph" transform="scale(1 1) rotate(0) translate(4 400)">
<title>snakemake_dag</title>
<polygon fill="white" stroke="transparent" points="-4,4 -4,-400 840.5,-400 840.5,4 -4,4"/>
<!-- 0 -->
<g id="node1" class="node">
<title>0</title>
<path fill="none" stroke="#88d856" stroke-width="2" d="M429,-36C429,-36 399,-36 399,-36 393,-36 387,-30 387,-24 387,-24 387,-12 387,-12 387,-6 393,0 399,0 399,0 429,0 429,0 435,0 441,-6 441,-12 441,-12 441,-24 441,-24 441,-30 435,-36 429,-36"/>
<text text-anchor="middle" x="414" y="-15.5" font-family="sans" font-size="10.00">all</text>
</g>
<!-- 1 -->
<g id="node2" class="node">
<title>1</title>
<path fill="none" stroke="#d88d56" stroke-width="2" d="M387.5,-180C387.5,-180 352.5,-180 352.5,-180 346.5,-180 340.5,-174 340.5,-168 340.5,-168 340.5,-156 340.5,-156 340.5,-150 346.5,-144 352.5,-144 352.5,-144 387.5,-144 387.5,-144 393.5,-144 399.5,-150 399.5,-156 399.5,-156 399.5,-168 399.5,-168 399.5,-174 393.5,-180 387.5,-180"/>
<text text-anchor="middle" x="370" y="-159.5" font-family="sans" font-size="10.00">assemble</text>
</g>
<!-- 1&#45;&gt;0 -->
<g id="edge1" class="edge">
<title>1&#45;&gt;0</title>
<path fill="none" stroke="grey" stroke-width="2" d="M375.31,-143.87C382.84,-119.56 396.7,-74.82 405.63,-46.01"/>
<polygon fill="grey" stroke="grey" stroke-width="2" points="409.06,-46.78 408.67,-36.19 402.37,-44.71 409.06,-46.78"/>
</g>
<!-- 2 -->
<g id="node3" class="node">
<title>2</title>
<path fill="none" stroke="#568ad8" stroke-width="2" d="M394.5,-252C394.5,-252 327.5,-252 327.5,-252 321.5,-252 315.5,-246 315.5,-240 315.5,-240 315.5,-228 315.5,-228 315.5,-222 321.5,-216 327.5,-216 327.5,-216 394.5,-216 394.5,-216 400.5,-216 406.5,-222 406.5,-228 406.5,-228 406.5,-240 406.5,-240 406.5,-246 400.5,-252 394.5,-252"/>
<text text-anchor="middle" x="361" y="-231.5" font-family="sans" font-size="10.00">concat_r1_reads</text>
</g>
<!-- 2&#45;&gt;1 -->
<g id="edge3" class="edge">
<title>2&#45;&gt;1</title>
<path fill="none" stroke="grey" stroke-width="2" d="M363.22,-215.7C364.22,-207.98 365.41,-198.71 366.51,-190.11"/>
<polygon fill="grey" stroke="grey" stroke-width="2" points="370,-190.47 367.8,-180.1 363.05,-189.58 370,-190.47"/>
</g>
<!-- 11 -->
<g id="node12" class="node">
<title>11</title>
<path fill="none" stroke="#56c1d8" stroke-width="2" d="M490.5,-180C490.5,-180 429.5,-180 429.5,-180 423.5,-180 417.5,-174 417.5,-168 417.5,-168 417.5,-156 417.5,-156 417.5,-150 423.5,-144 429.5,-144 429.5,-144 490.5,-144 490.5,-144 496.5,-144 502.5,-150 502.5,-156 502.5,-156 502.5,-168 502.5,-168 502.5,-174 496.5,-180 490.5,-180"/>
<text text-anchor="middle" x="460" y="-159.5" font-family="sans" font-size="10.00">fastqc_trimmed</text>
</g>
<!-- 2&#45;&gt;11 -->
<g id="edge14" class="edge">
<title>2&#45;&gt;11</title>
<path fill="none" stroke="grey" stroke-width="2" d="M385.22,-215.88C397.92,-206.89 413.66,-195.76 427.42,-186.03"/>
<polygon fill="grey" stroke="grey" stroke-width="2" points="429.54,-188.82 435.69,-180.19 425.5,-183.11 429.54,-188.82"/>
</g>
<!-- 3 -->
<g id="node4" class="node">
<title>3</title>
<path fill="none" stroke="#59d856" stroke-width="2" d="M395,-324C395,-324 315,-324 315,-324 309,-324 303,-318 303,-312 303,-312 303,-300 303,-300 303,-294 309,-288 315,-288 315,-288 395,-288 395,-288 401,-288 407,-294 407,-300 407,-300 407,-312 407,-312 407,-318 401,-324 395,-324"/>
<text text-anchor="middle" x="355" y="-309" font-family="sans" font-size="10.00">first_fastp</text>
<text text-anchor="middle" x="355" y="-298" font-family="sans" font-size="10.00">sample: NTM01067</text>
</g>
<!-- 3&#45;&gt;2 -->
<g id="edge5" class="edge">
<title>3&#45;&gt;2</title>
<path fill="none" stroke="grey" stroke-width="2" d="M356.48,-287.7C357.14,-279.98 357.94,-270.71 358.68,-262.11"/>
<polygon fill="grey" stroke="grey" stroke-width="2" points="362.17,-262.37 359.53,-252.1 355.19,-261.77 362.17,-262.37"/>
</g>
<!-- 9 -->
<g id="node10" class="node">
<title>9</title>
<path fill="none" stroke="#bed856" stroke-width="2" d="M503.5,-252C503.5,-252 436.5,-252 436.5,-252 430.5,-252 424.5,-246 424.5,-240 424.5,-240 424.5,-228 424.5,-228 424.5,-222 430.5,-216 436.5,-216 436.5,-216 503.5,-216 503.5,-216 509.5,-216 515.5,-222 515.5,-228 515.5,-228 515.5,-240 515.5,-240 515.5,-246 509.5,-252 503.5,-252"/>
<text text-anchor="middle" x="470" y="-231.5" font-family="sans" font-size="10.00">concat_r2_reads</text>
</g>
<!-- 3&#45;&gt;9 -->
<g id="edge11" class="edge">
<title>3&#45;&gt;9</title>
<path fill="none" stroke="grey" stroke-width="2" d="M383.13,-287.88C398.17,-278.72 416.87,-267.34 433.06,-257.48"/>
<polygon fill="grey" stroke="grey" stroke-width="2" points="435.04,-260.38 441.76,-252.19 431.4,-254.4 435.04,-260.38"/>
</g>
<!-- 4 -->
<g id="node5" class="node">
<title>4</title>
<path fill="none" stroke="#d8bc56" stroke-width="2" d="M182,-396C182,-396 12,-396 12,-396 6,-396 0,-390 0,-384 0,-384 0,-372 0,-372 0,-366 6,-360 12,-360 12,-360 182,-360 182,-360 188,-360 194,-366 194,-372 194,-372 194,-384 194,-384 194,-390 188,-396 182,-396"/>
<text text-anchor="middle" x="97" y="-381" font-family="sans" font-size="10.00">ftp_first</text>
<text text-anchor="middle" x="97" y="-370" font-family="sans" font-size="10.00">file_f: NTM01067_S99_R1_001.fastq.gz</text>
</g>
<!-- 4&#45;&gt;3 -->
<g id="edge7" class="edge">
<title>4&#45;&gt;3</title>
<path fill="none" stroke="grey" stroke-width="2" d="M159.78,-359.97C200.3,-348.97 252.76,-334.74 293.1,-323.79"/>
<polygon fill="grey" stroke="grey" stroke-width="2" points="294.08,-327.16 302.82,-321.16 292.25,-320.4 294.08,-327.16"/>
</g>
<!-- 5 -->
<g id="node6" class="node">
<title>5</title>
<path fill="none" stroke="#d8bc56" stroke-width="2" d="M394,-396C394,-396 224,-396 224,-396 218,-396 212,-390 212,-384 212,-384 212,-372 212,-372 212,-366 218,-360 224,-360 224,-360 394,-360 394,-360 400,-360 406,-366 406,-372 406,-372 406,-384 406,-384 406,-390 400,-396 394,-396"/>
<text text-anchor="middle" x="309" y="-381" font-family="sans" font-size="10.00">ftp_first</text>
<text text-anchor="middle" x="309" y="-370" font-family="sans" font-size="10.00">file_f: NTM01067_S99_R2_001.fastq.gz</text>
</g>
<!-- 5&#45;&gt;3 -->
<g id="edge8" class="edge">
<title>5&#45;&gt;3</title>
<path fill="none" stroke="grey" stroke-width="2" d="M320.37,-359.7C325.72,-351.56 332.2,-341.69 338.11,-332.7"/>
<polygon fill="grey" stroke="grey" stroke-width="2" points="341.19,-334.38 343.76,-324.1 335.34,-330.54 341.19,-334.38"/>
</g>
<!-- 6 -->
<g id="node7" class="node">
<title>6</title>
<path fill="none" stroke="#d85656" stroke-width="2" d="M540,-324C540,-324 460,-324 460,-324 454,-324 448,-318 448,-312 448,-312 448,-300 448,-300 448,-294 454,-288 460,-288 460,-288 540,-288 540,-288 546,-288 552,-294 552,-300 552,-300 552,-312 552,-312 552,-318 546,-324 540,-324"/>
<text text-anchor="middle" x="500" y="-309" font-family="sans" font-size="10.00">second_fastp</text>
<text text-anchor="middle" x="500" y="-298" font-family="sans" font-size="10.00">sample: NTM01067</text>
</g>
<!-- 6&#45;&gt;2 -->
<g id="edge6" class="edge">
<title>6&#45;&gt;2</title>
<path fill="none" stroke="grey" stroke-width="2" d="M466,-287.88C447.4,-278.51 424.17,-266.81 404.29,-256.8"/>
<polygon fill="grey" stroke="grey" stroke-width="2" points="405.64,-253.56 395.13,-252.19 402.49,-259.81 405.64,-253.56"/>
</g>
<!-- 6&#45;&gt;9 -->
<g id="edge12" class="edge">
<title>6&#45;&gt;9</title>
<path fill="none" stroke="grey" stroke-width="2" d="M492.58,-287.7C489.21,-279.81 485.13,-270.3 481.38,-261.55"/>
<polygon fill="grey" stroke="grey" stroke-width="2" points="484.49,-259.92 477.33,-252.1 478.05,-262.67 484.49,-259.92"/>
</g>
<!-- 7 -->
<g id="node8" class="node">
<title>7</title>
<path fill="none" stroke="#56d8c1" stroke-width="2" d="M609.5,-396C609.5,-396 436.5,-396 436.5,-396 430.5,-396 424.5,-390 424.5,-384 424.5,-384 424.5,-372 424.5,-372 424.5,-366 430.5,-360 436.5,-360 436.5,-360 609.5,-360 609.5,-360 615.5,-360 621.5,-366 621.5,-372 621.5,-372 621.5,-384 621.5,-384 621.5,-390 615.5,-396 609.5,-396"/>
<text text-anchor="middle" x="523" y="-381" font-family="sans" font-size="10.00">ftp_second</text>
<text text-anchor="middle" x="523" y="-370" font-family="sans" font-size="10.00">file_s: NTM01067_S82_R1_001.fastq.gz</text>
</g>
<!-- 7&#45;&gt;6 -->
<g id="edge9" class="edge">
<title>7&#45;&gt;6</title>
<path fill="none" stroke="grey" stroke-width="2" d="M517.31,-359.7C514.75,-351.9 511.67,-342.51 508.82,-333.83"/>
<polygon fill="grey" stroke="grey" stroke-width="2" points="512.07,-332.51 505.62,-324.1 505.42,-334.7 512.07,-332.51"/>
</g>
<!-- 8 -->
<g id="node9" class="node">
<title>8</title>
<path fill="none" stroke="#56d8c1" stroke-width="2" d="M824.5,-396C824.5,-396 651.5,-396 651.5,-396 645.5,-396 639.5,-390 639.5,-384 639.5,-384 639.5,-372 639.5,-372 639.5,-366 645.5,-360 651.5,-360 651.5,-360 824.5,-360 824.5,-360 830.5,-360 836.5,-366 836.5,-372 836.5,-372 836.5,-384 836.5,-384 836.5,-390 830.5,-396 824.5,-396"/>
<text text-anchor="middle" x="738" y="-381" font-family="sans" font-size="10.00">ftp_second</text>
<text text-anchor="middle" x="738" y="-370" font-family="sans" font-size="10.00">file_s: NTM01067_S82_R2_001.fastq.gz</text>
</g>
<!-- 8&#45;&gt;6 -->
<g id="edge10" class="edge">
<title>8&#45;&gt;6</title>
<path fill="none" stroke="grey" stroke-width="2" d="M680.08,-359.97C644.36,-349.46 598.57,-335.99 562.1,-325.27"/>
<polygon fill="grey" stroke="grey" stroke-width="2" points="562.66,-321.78 552.08,-322.32 560.69,-328.5 562.66,-321.78"/>
</g>
<!-- 9&#45;&gt;1 -->
<g id="edge4" class="edge">
<title>9&#45;&gt;1</title>
<path fill="none" stroke="grey" stroke-width="2" d="M445.54,-215.88C432.7,-206.89 416.8,-195.76 402.91,-186.03"/>
<polygon fill="grey" stroke="grey" stroke-width="2" points="404.76,-183.06 394.56,-180.19 400.74,-188.79 404.76,-183.06"/>
</g>
<!-- 9&#45;&gt;11 -->
<g id="edge15" class="edge">
<title>9&#45;&gt;11</title>
<path fill="none" stroke="grey" stroke-width="2" d="M467.53,-215.7C466.43,-207.98 465.1,-198.71 463.87,-190.11"/>
<polygon fill="grey" stroke="grey" stroke-width="2" points="467.32,-189.51 462.44,-180.1 460.39,-190.5 467.32,-189.51"/>
</g>
<!-- 10 -->
<g id="node11" class="node">
<title>10</title>
<path fill="none" stroke="#56d88a" stroke-width="2" d="M488,-108C488,-108 422,-108 422,-108 416,-108 410,-102 410,-96 410,-96 410,-84 410,-84 410,-78 416,-72 422,-72 422,-72 488,-72 488,-72 494,-72 500,-78 500,-84 500,-84 500,-96 500,-96 500,-102 494,-108 488,-108"/>
<text text-anchor="middle" x="455" y="-87.5" font-family="sans" font-size="10.00">multiqc_trimmed</text>
</g>
<!-- 10&#45;&gt;0 -->
<g id="edge2" class="edge">
<title>10&#45;&gt;0</title>
<path fill="none" stroke="grey" stroke-width="2" d="M444.87,-71.7C440.15,-63.64 434.44,-53.89 429.22,-44.98"/>
<polygon fill="grey" stroke="grey" stroke-width="2" points="432.09,-42.96 424.02,-36.1 426.05,-46.5 432.09,-42.96"/>
</g>
<!-- 11&#45;&gt;10 -->
<g id="edge13" class="edge">
<title>11&#45;&gt;10</title>
<path fill="none" stroke="grey" stroke-width="2" d="M458.76,-143.7C458.21,-135.98 457.55,-126.71 456.94,-118.11"/>
<polygon fill="grey" stroke="grey" stroke-width="2" points="460.43,-117.83 456.22,-108.1 453.44,-118.33 460.43,-117.83"/>
</g>
</g>
</svg>
