<?xml version="1.0" encoding="UTF-8" standalone="no"?>
<!DOCTYPE svg PUBLIC "-//W3C//DTD SVG 1.1//EN"
 "http://www.w3.org/Graphics/SVG/1.1/DTD/svg11.dtd">
<!-- Generated by graphviz version 2.42.3 (20191010.1750)
 -->
<!-- Title: snakemake_dag Pages: 1 -->
<svg width="1700pt" height="332pt"
 viewBox="0.00 0.00 1699.50 332.00" xmlns="http://www.w3.org/2000/svg" xmlns:xlink="http://www.w3.org/1999/xlink">
<g id="graph0" class="graph" transform="scale(1 1) rotate(0) translate(4 328)">
<title>snakemake_dag</title>
<polygon fill="white" stroke="transparent" points="-4,4 -4,-328 1695.5,-328 1695.5,4 -4,4"/>
<!-- 0 -->
<g id="node1" class="node">
<title>0</title>
<path fill="none" stroke="#88d856" stroke-width="2" d="M835,-36C835,-36 805,-36 805,-36 799,-36 793,-30 793,-24 793,-24 793,-12 793,-12 793,-6 799,0 805,0 805,0 835,0 835,0 841,0 847,-6 847,-12 847,-12 847,-24 847,-24 847,-30 841,-36 835,-36"/>
<text text-anchor="middle" x="820" y="-15.5" font-family="sans" font-size="10.00">all</text>
</g>
<!-- 1 -->
<g id="node2" class="node">
<title>1</title>
<path fill="none" stroke="#bed856" stroke-width="2" d="M586.5,-108C586.5,-108 551.5,-108 551.5,-108 545.5,-108 539.5,-102 539.5,-96 539.5,-96 539.5,-84 539.5,-84 539.5,-78 545.5,-72 551.5,-72 551.5,-72 586.5,-72 586.5,-72 592.5,-72 598.5,-78 598.5,-84 598.5,-84 598.5,-96 598.5,-96 598.5,-102 592.5,-108 586.5,-108"/>
<text text-anchor="middle" x="569" y="-87.5" font-family="sans" font-size="10.00">assemble</text>
</g>
<!-- 1&#45;&gt;0 -->
<g id="edge1" class="edge">
<title>1&#45;&gt;0</title>
<path fill="none" stroke="grey" stroke-width="2" d="M598.61,-75.49C601.75,-74.24 604.92,-73.05 608,-72 668.06,-51.56 740.1,-35.21 782.86,-26.33"/>
<polygon fill="grey" stroke="grey" stroke-width="2" points="783.72,-29.72 792.81,-24.29 782.31,-22.87 783.72,-29.72"/>
</g>
<!-- 2 -->
<g id="node3" class="node">
<title>2</title>
<path fill="none" stroke="#d85656" stroke-width="2" d="M537,-180C537,-180 471,-180 471,-180 465,-180 459,-174 459,-168 459,-168 459,-156 459,-156 459,-150 465,-144 471,-144 471,-144 537,-144 537,-144 543,-144 549,-150 549,-156 549,-156 549,-168 549,-168 549,-174 543,-180 537,-180"/>
<text text-anchor="middle" x="504" y="-159.5" font-family="sans" font-size="10.00">merge_r1_reads</text>
</g>
<!-- 2&#45;&gt;1 -->
<g id="edge5" class="edge">
<title>2&#45;&gt;1</title>
<path fill="none" stroke="grey" stroke-width="2" d="M520.07,-143.7C527.94,-135.22 537.56,-124.86 546.17,-115.58"/>
<polygon fill="grey" stroke="grey" stroke-width="2" points="548.88,-117.81 553.12,-108.1 543.75,-113.05 548.88,-117.81"/>
</g>
<!-- 19 -->
<g id="node20" class="node">
<title>19</title>
<path fill="none" stroke="#56d88a" stroke-width="2" d="M679,-108C679,-108 629,-108 629,-108 623,-108 617,-102 617,-96 617,-96 617,-84 617,-84 617,-78 623,-72 629,-72 629,-72 679,-72 679,-72 685,-72 691,-78 691,-84 691,-84 691,-96 691,-96 691,-102 685,-108 679,-108"/>
<text text-anchor="middle" x="654" y="-87.5" font-family="sans" font-size="10.00">fastqc_reads</text>
</g>
<!-- 2&#45;&gt;19 -->
<g id="edge25" class="edge">
<title>2&#45;&gt;19</title>
<path fill="none" stroke="grey" stroke-width="2" d="M540.69,-143.88C561.02,-134.39 586.47,-122.51 608.1,-112.42"/>
<polygon fill="grey" stroke="grey" stroke-width="2" points="609.84,-115.47 617.43,-108.07 606.88,-109.13 609.84,-115.47"/>
</g>
<!-- 3 -->
<g id="node4" class="node">
<title>3</title>
<path fill="none" stroke="#568ad8" stroke-width="2" d="M430,-252C430,-252 350,-252 350,-252 344,-252 338,-246 338,-240 338,-240 338,-228 338,-228 338,-222 344,-216 350,-216 350,-216 430,-216 430,-216 436,-216 442,-222 442,-228 442,-228 442,-240 442,-240 442,-246 436,-252 430,-252"/>
<text text-anchor="middle" x="390" y="-237" font-family="sans" font-size="10.00">first_fastp</text>
<text text-anchor="middle" x="390" y="-226" font-family="sans" font-size="10.00">sample: NTM01067</text>
</g>
<!-- 3&#45;&gt;2 -->
<g id="edge7" class="edge">
<title>3&#45;&gt;2</title>
<path fill="none" stroke="grey" stroke-width="2" d="M417.89,-215.88C432.79,-206.72 451.33,-195.34 467.38,-185.48"/>
<polygon fill="grey" stroke="grey" stroke-width="2" points="469.31,-188.41 476.01,-180.19 465.65,-182.44 469.31,-188.41"/>
</g>
<!-- 9 -->
<g id="node10" class="node">
<title>9</title>
<path fill="none" stroke="#d88d56" stroke-width="2" d="M645,-180C645,-180 579,-180 579,-180 573,-180 567,-174 567,-168 567,-168 567,-156 567,-156 567,-150 573,-144 579,-144 579,-144 645,-144 645,-144 651,-144 657,-150 657,-156 657,-156 657,-168 657,-168 657,-174 651,-180 645,-180"/>
<text text-anchor="middle" x="612" y="-159.5" font-family="sans" font-size="10.00">merge_r2_reads</text>
</g>
<!-- 3&#45;&gt;9 -->
<g id="edge13" class="edge">
<title>3&#45;&gt;9</title>
<path fill="none" stroke="grey" stroke-width="2" d="M442.05,-216.59C476.61,-205.69 521.9,-191.41 557.04,-180.33"/>
<polygon fill="grey" stroke="grey" stroke-width="2" points="558.18,-183.64 566.67,-177.29 556.08,-176.96 558.18,-183.64"/>
</g>
<!-- 4 -->
<g id="node5" class="node">
<title>4</title>
<path fill="none" stroke="#59d856" stroke-width="2" d="M182,-324C182,-324 12,-324 12,-324 6,-324 0,-318 0,-312 0,-312 0,-300 0,-300 0,-294 6,-288 12,-288 12,-288 182,-288 182,-288 188,-288 194,-294 194,-300 194,-300 194,-312 194,-312 194,-318 188,-324 182,-324"/>
<text text-anchor="middle" x="97" y="-309" font-family="sans" font-size="10.00">ftp_first</text>
<text text-anchor="middle" x="97" y="-298" font-family="sans" font-size="10.00">file_f: NTM01067_S99_R1_001.fastq.gz</text>
</g>
<!-- 4&#45;&gt;3 -->
<g id="edge9" class="edge">
<title>4&#45;&gt;3</title>
<path fill="none" stroke="grey" stroke-width="2" d="M168.3,-287.97C217.07,-276.32 281.08,-261.02 327.78,-249.86"/>
<polygon fill="grey" stroke="grey" stroke-width="2" points="328.85,-253.21 337.77,-247.48 327.23,-246.4 328.85,-253.21"/>
</g>
<!-- 5 -->
<g id="node6" class="node">
<title>5</title>
<path fill="none" stroke="#59d856" stroke-width="2" d="M394,-324C394,-324 224,-324 224,-324 218,-324 212,-318 212,-312 212,-312 212,-300 212,-300 212,-294 218,-288 224,-288 224,-288 394,-288 394,-288 400,-288 406,-294 406,-300 406,-300 406,-312 406,-312 406,-318 400,-324 394,-324"/>
<text text-anchor="middle" x="309" y="-309" font-family="sans" font-size="10.00">ftp_first</text>
<text text-anchor="middle" x="309" y="-298" font-family="sans" font-size="10.00">file_f: NTM01067_S99_R2_001.fastq.gz</text>
</g>
<!-- 5&#45;&gt;3 -->
<g id="edge10" class="edge">
<title>5&#45;&gt;3</title>
<path fill="none" stroke="grey" stroke-width="2" d="M329.02,-287.7C339.13,-278.97 351.54,-268.24 362.52,-258.75"/>
<polygon fill="grey" stroke="grey" stroke-width="2" points="364.93,-261.29 370.21,-252.1 360.35,-255.99 364.93,-261.29"/>
</g>
<!-- 6 -->
<g id="node7" class="node">
<title>6</title>
<path fill="none" stroke="#56c1d8" stroke-width="2" d="M598,-252C598,-252 518,-252 518,-252 512,-252 506,-246 506,-240 506,-240 506,-228 506,-228 506,-222 512,-216 518,-216 518,-216 598,-216 598,-216 604,-216 610,-222 610,-228 610,-228 610,-240 610,-240 610,-246 604,-252 598,-252"/>
<text text-anchor="middle" x="558" y="-237" font-family="sans" font-size="10.00">second_fastp</text>
<text text-anchor="middle" x="558" y="-226" font-family="sans" font-size="10.00">sample: NTM01067</text>
</g>
<!-- 6&#45;&gt;2 -->
<g id="edge8" class="edge">
<title>6&#45;&gt;2</title>
<path fill="none" stroke="grey" stroke-width="2" d="M544.65,-215.7C538.24,-207.39 530.44,-197.28 523.39,-188.14"/>
<polygon fill="grey" stroke="grey" stroke-width="2" points="526.07,-185.88 517.19,-180.1 520.53,-190.16 526.07,-185.88"/>
</g>
<!-- 6&#45;&gt;9 -->
<g id="edge14" class="edge">
<title>6&#45;&gt;9</title>
<path fill="none" stroke="grey" stroke-width="2" d="M571.35,-215.7C577.76,-207.39 585.56,-197.28 592.61,-188.14"/>
<polygon fill="grey" stroke="grey" stroke-width="2" points="595.47,-190.16 598.81,-180.1 589.93,-185.88 595.47,-190.16"/>
</g>
<!-- 7 -->
<g id="node8" class="node">
<title>7</title>
<path fill="none" stroke="#56d8c1" stroke-width="2" d="M609.5,-324C609.5,-324 436.5,-324 436.5,-324 430.5,-324 424.5,-318 424.5,-312 424.5,-312 424.5,-300 424.5,-300 424.5,-294 430.5,-288 436.5,-288 436.5,-288 609.5,-288 609.5,-288 615.5,-288 621.5,-294 621.5,-300 621.5,-300 621.5,-312 621.5,-312 621.5,-318 615.5,-324 609.5,-324"/>
<text text-anchor="middle" x="523" y="-309" font-family="sans" font-size="10.00">ftp_second</text>
<text text-anchor="middle" x="523" y="-298" font-family="sans" font-size="10.00">file_s: NTM01067_S82_R1_001.fastq.gz</text>
</g>
<!-- 7&#45;&gt;6 -->
<g id="edge11" class="edge">
<title>7&#45;&gt;6</title>
<path fill="none" stroke="grey" stroke-width="2" d="M531.65,-287.7C535.64,-279.73 540.45,-270.1 544.87,-261.26"/>
<polygon fill="grey" stroke="grey" stroke-width="2" points="548.11,-262.61 549.45,-252.1 541.85,-259.48 548.11,-262.61"/>
</g>
<!-- 8 -->
<g id="node9" class="node">
<title>8</title>
<path fill="none" stroke="#56d8c1" stroke-width="2" d="M824.5,-324C824.5,-324 651.5,-324 651.5,-324 645.5,-324 639.5,-318 639.5,-312 639.5,-312 639.5,-300 639.5,-300 639.5,-294 645.5,-288 651.5,-288 651.5,-288 824.5,-288 824.5,-288 830.5,-288 836.5,-294 836.5,-300 836.5,-300 836.5,-312 836.5,-312 836.5,-318 830.5,-324 824.5,-324"/>
<text text-anchor="middle" x="738" y="-309" font-family="sans" font-size="10.00">ftp_second</text>
<text text-anchor="middle" x="738" y="-298" font-family="sans" font-size="10.00">file_s: NTM01067_S82_R2_001.fastq.gz</text>
</g>
<!-- 8&#45;&gt;6 -->
<g id="edge12" class="edge">
<title>8&#45;&gt;6</title>
<path fill="none" stroke="grey" stroke-width="2" d="M693.97,-287.88C669.03,-278.18 637.66,-265.98 611.34,-255.74"/>
<polygon fill="grey" stroke="grey" stroke-width="2" points="612.48,-252.43 601.89,-252.07 609.94,-258.95 612.48,-252.43"/>
</g>
<!-- 9&#45;&gt;1 -->
<g id="edge6" class="edge">
<title>9&#45;&gt;1</title>
<path fill="none" stroke="grey" stroke-width="2" d="M601.37,-143.7C596.37,-135.56 590.31,-125.69 584.79,-116.7"/>
<polygon fill="grey" stroke="grey" stroke-width="2" points="587.72,-114.79 579.51,-108.1 581.76,-118.46 587.72,-114.79"/>
</g>
<!-- 9&#45;&gt;19 -->
<g id="edge26" class="edge">
<title>9&#45;&gt;19</title>
<path fill="none" stroke="grey" stroke-width="2" d="M622.38,-143.7C627.26,-135.56 633.19,-125.69 638.58,-116.7"/>
<polygon fill="grey" stroke="grey" stroke-width="2" points="641.59,-118.48 643.74,-108.1 635.59,-114.88 641.59,-118.48"/>
</g>
<!-- 10 -->
<g id="node11" class="node">
<title>10</title>
<path fill="none" stroke="#bed856" stroke-width="2" d="M948.5,-108C948.5,-108 913.5,-108 913.5,-108 907.5,-108 901.5,-102 901.5,-96 901.5,-96 901.5,-84 901.5,-84 901.5,-78 907.5,-72 913.5,-72 913.5,-72 948.5,-72 948.5,-72 954.5,-72 960.5,-78 960.5,-84 960.5,-84 960.5,-96 960.5,-96 960.5,-102 954.5,-108 948.5,-108"/>
<text text-anchor="middle" x="931" y="-87.5" font-family="sans" font-size="10.00">assemble</text>
</g>
<!-- 10&#45;&gt;0 -->
<g id="edge2" class="edge">
<title>10&#45;&gt;0</title>
<path fill="none" stroke="grey" stroke-width="2" d="M903.85,-71.88C889.47,-62.81 871.62,-51.55 856.09,-41.76"/>
<polygon fill="grey" stroke="grey" stroke-width="2" points="857.58,-38.56 847.26,-36.19 853.85,-44.48 857.58,-38.56"/>
</g>
<!-- 11 -->
<g id="node12" class="node">
<title>11</title>
<path fill="none" stroke="#d85656" stroke-width="2" d="M1007,-180C1007,-180 941,-180 941,-180 935,-180 929,-174 929,-168 929,-168 929,-156 929,-156 929,-150 935,-144 941,-144 941,-144 1007,-144 1007,-144 1013,-144 1019,-150 1019,-156 1019,-156 1019,-168 1019,-168 1019,-174 1013,-180 1007,-180"/>
<text text-anchor="middle" x="974" y="-159.5" font-family="sans" font-size="10.00">merge_r1_reads</text>
</g>
<!-- 11&#45;&gt;10 -->
<g id="edge15" class="edge">
<title>11&#45;&gt;10</title>
<path fill="none" stroke="grey" stroke-width="2" d="M963.37,-143.7C958.37,-135.56 952.31,-125.69 946.79,-116.7"/>
<polygon fill="grey" stroke="grey" stroke-width="2" points="949.72,-114.79 941.51,-108.1 943.76,-118.46 949.72,-114.79"/>
</g>
<!-- 20 -->
<g id="node21" class="node">
<title>20</title>
<path fill="none" stroke="#56d88a" stroke-width="2" d="M1041,-108C1041,-108 991,-108 991,-108 985,-108 979,-102 979,-96 979,-96 979,-84 979,-84 979,-78 985,-72 991,-72 991,-72 1041,-72 1041,-72 1047,-72 1053,-78 1053,-84 1053,-84 1053,-96 1053,-96 1053,-102 1047,-108 1041,-108"/>
<text text-anchor="middle" x="1016" y="-87.5" font-family="sans" font-size="10.00">fastqc_reads</text>
</g>
<!-- 11&#45;&gt;20 -->
<g id="edge27" class="edge">
<title>11&#45;&gt;20</title>
<path fill="none" stroke="grey" stroke-width="2" d="M984.38,-143.7C989.26,-135.56 995.19,-125.69 1000.58,-116.7"/>
<polygon fill="grey" stroke="grey" stroke-width="2" points="1003.59,-118.48 1005.74,-108.1 997.59,-114.88 1003.59,-118.48"/>
</g>
<!-- 12 -->
<g id="node13" class="node">
<title>12</title>
<path fill="none" stroke="#568ad8" stroke-width="2" d="M1068,-252C1068,-252 988,-252 988,-252 982,-252 976,-246 976,-240 976,-240 976,-228 976,-228 976,-222 982,-216 988,-216 988,-216 1068,-216 1068,-216 1074,-216 1080,-222 1080,-228 1080,-228 1080,-240 1080,-240 1080,-246 1074,-252 1068,-252"/>
<text text-anchor="middle" x="1028" y="-237" font-family="sans" font-size="10.00">first_fastp</text>
<text text-anchor="middle" x="1028" y="-226" font-family="sans" font-size="10.00">sample: NTM00136</text>
</g>
<!-- 12&#45;&gt;11 -->
<g id="edge17" class="edge">
<title>12&#45;&gt;11</title>
<path fill="none" stroke="grey" stroke-width="2" d="M1014.65,-215.7C1008.24,-207.39 1000.44,-197.28 993.39,-188.14"/>
<polygon fill="grey" stroke="grey" stroke-width="2" points="996.07,-185.88 987.19,-180.1 990.53,-190.16 996.07,-185.88"/>
</g>
<!-- 18 -->
<g id="node19" class="node">
<title>18</title>
<path fill="none" stroke="#d88d56" stroke-width="2" d="M1115,-180C1115,-180 1049,-180 1049,-180 1043,-180 1037,-174 1037,-168 1037,-168 1037,-156 1037,-156 1037,-150 1043,-144 1049,-144 1049,-144 1115,-144 1115,-144 1121,-144 1127,-150 1127,-156 1127,-156 1127,-168 1127,-168 1127,-174 1121,-180 1115,-180"/>
<text text-anchor="middle" x="1082" y="-159.5" font-family="sans" font-size="10.00">merge_r2_reads</text>
</g>
<!-- 12&#45;&gt;18 -->
<g id="edge23" class="edge">
<title>12&#45;&gt;18</title>
<path fill="none" stroke="grey" stroke-width="2" d="M1041.35,-215.7C1047.76,-207.39 1055.56,-197.28 1062.61,-188.14"/>
<polygon fill="grey" stroke="grey" stroke-width="2" points="1065.47,-190.16 1068.81,-180.1 1059.93,-185.88 1065.47,-190.16"/>
</g>
<!-- 13 -->
<g id="node14" class="node">
<title>13</title>
<path fill="none" stroke="#59d856" stroke-width="2" d="M1037,-324C1037,-324 867,-324 867,-324 861,-324 855,-318 855,-312 855,-312 855,-300 855,-300 855,-294 861,-288 867,-288 867,-288 1037,-288 1037,-288 1043,-288 1049,-294 1049,-300 1049,-300 1049,-312 1049,-312 1049,-318 1043,-324 1037,-324"/>
<text text-anchor="middle" x="952" y="-309" font-family="sans" font-size="10.00">ftp_first</text>
<text text-anchor="middle" x="952" y="-298" font-family="sans" font-size="10.00">file_f: NTM00136_S27_R1_001.fastq.gz</text>
</g>
<!-- 13&#45;&gt;12 -->
<g id="edge19" class="edge">
<title>13&#45;&gt;12</title>
<path fill="none" stroke="grey" stroke-width="2" d="M970.79,-287.7C980.17,-279.05 991.68,-268.45 1001.91,-259.03"/>
<polygon fill="grey" stroke="grey" stroke-width="2" points="1004.45,-261.45 1009.43,-252.1 999.7,-256.3 1004.45,-261.45"/>
</g>
<!-- 14 -->
<g id="node15" class="node">
<title>14</title>
<path fill="none" stroke="#59d856" stroke-width="2" d="M1249,-324C1249,-324 1079,-324 1079,-324 1073,-324 1067,-318 1067,-312 1067,-312 1067,-300 1067,-300 1067,-294 1073,-288 1079,-288 1079,-288 1249,-288 1249,-288 1255,-288 1261,-294 1261,-300 1261,-300 1261,-312 1261,-312 1261,-318 1255,-324 1249,-324"/>
<text text-anchor="middle" x="1164" y="-309" font-family="sans" font-size="10.00">ftp_first</text>
<text text-anchor="middle" x="1164" y="-298" font-family="sans" font-size="10.00">file_f: NTM00136_S27_R2_001.fastq.gz</text>
</g>
<!-- 14&#45;&gt;12 -->
<g id="edge20" class="edge">
<title>14&#45;&gt;12</title>
<path fill="none" stroke="grey" stroke-width="2" d="M1130.73,-287.88C1112.54,-278.51 1089.81,-266.81 1070.36,-256.8"/>
<polygon fill="grey" stroke="grey" stroke-width="2" points="1071.89,-253.65 1061.4,-252.19 1068.69,-259.88 1071.89,-253.65"/>
</g>
<!-- 15 -->
<g id="node16" class="node">
<title>15</title>
<path fill="none" stroke="#56c1d8" stroke-width="2" d="M1342,-252C1342,-252 1262,-252 1262,-252 1256,-252 1250,-246 1250,-240 1250,-240 1250,-228 1250,-228 1250,-222 1256,-216 1262,-216 1262,-216 1342,-216 1342,-216 1348,-216 1354,-222 1354,-228 1354,-228 1354,-240 1354,-240 1354,-246 1348,-252 1342,-252"/>
<text text-anchor="middle" x="1302" y="-237" font-family="sans" font-size="10.00">second_fastp</text>
<text text-anchor="middle" x="1302" y="-226" font-family="sans" font-size="10.00">sample: NTM00136</text>
</g>
<!-- 15&#45;&gt;11 -->
<g id="edge18" class="edge">
<title>15&#45;&gt;11</title>
<path fill="none" stroke="grey" stroke-width="2" d="M1249.85,-224.73C1196.54,-215.87 1111.25,-200.58 1029.02,-180.12"/>
<polygon fill="grey" stroke="grey" stroke-width="2" points="1029.82,-176.71 1019.27,-177.66 1028.11,-183.5 1029.82,-176.71"/>
</g>
<!-- 15&#45;&gt;18 -->
<g id="edge24" class="edge">
<title>15&#45;&gt;18</title>
<path fill="none" stroke="grey" stroke-width="2" d="M1249.86,-216.41C1215.86,-205.59 1171.55,-191.49 1136.99,-180.5"/>
<polygon fill="grey" stroke="grey" stroke-width="2" points="1137.65,-177.04 1127.06,-177.34 1135.53,-183.71 1137.65,-177.04"/>
</g>
<!-- 16 -->
<g id="node17" class="node">
<title>16</title>
<path fill="none" stroke="#56d8c1" stroke-width="2" d="M1464.5,-324C1464.5,-324 1291.5,-324 1291.5,-324 1285.5,-324 1279.5,-318 1279.5,-312 1279.5,-312 1279.5,-300 1279.5,-300 1279.5,-294 1285.5,-288 1291.5,-288 1291.5,-288 1464.5,-288 1464.5,-288 1470.5,-288 1476.5,-294 1476.5,-300 1476.5,-300 1476.5,-312 1476.5,-312 1476.5,-318 1470.5,-324 1464.5,-324"/>
<text text-anchor="middle" x="1378" y="-309" font-family="sans" font-size="10.00">ftp_second</text>
<text text-anchor="middle" x="1378" y="-298" font-family="sans" font-size="10.00">file_s: NTM00136_S10_R1_001.fastq.gz</text>
</g>
<!-- 16&#45;&gt;15 -->
<g id="edge21" class="edge">
<title>16&#45;&gt;15</title>
<path fill="none" stroke="grey" stroke-width="2" d="M1359.21,-287.7C1349.83,-279.05 1338.32,-268.45 1328.09,-259.03"/>
<polygon fill="grey" stroke="grey" stroke-width="2" points="1330.3,-256.3 1320.57,-252.1 1325.55,-261.45 1330.3,-256.3"/>
</g>
<!-- 17 -->
<g id="node18" class="node">
<title>17</title>
<path fill="none" stroke="#56d8c1" stroke-width="2" d="M1679.5,-324C1679.5,-324 1506.5,-324 1506.5,-324 1500.5,-324 1494.5,-318 1494.5,-312 1494.5,-312 1494.5,-300 1494.5,-300 1494.5,-294 1500.5,-288 1506.5,-288 1506.5,-288 1679.5,-288 1679.5,-288 1685.5,-288 1691.5,-294 1691.5,-300 1691.5,-300 1691.5,-312 1691.5,-312 1691.5,-318 1685.5,-324 1679.5,-324"/>
<text text-anchor="middle" x="1593" y="-309" font-family="sans" font-size="10.00">ftp_second</text>
<text text-anchor="middle" x="1593" y="-298" font-family="sans" font-size="10.00">file_s: NTM00136_S10_R2_001.fastq.gz</text>
</g>
<!-- 17&#45;&gt;15 -->
<g id="edge22" class="edge">
<title>17&#45;&gt;15</title>
<path fill="none" stroke="grey" stroke-width="2" d="M1522.19,-287.97C1473.91,-276.35 1410.59,-261.12 1364.25,-249.97"/>
<polygon fill="grey" stroke="grey" stroke-width="2" points="1364.87,-246.52 1354.33,-247.59 1363.24,-253.33 1364.87,-246.52"/>
</g>
<!-- 18&#45;&gt;10 -->
<g id="edge16" class="edge">
<title>18&#45;&gt;10</title>
<path fill="none" stroke="grey" stroke-width="2" d="M1045.06,-143.88C1022.35,-133.35 993.27,-119.87 970.15,-109.15"/>
<polygon fill="grey" stroke="grey" stroke-width="2" points="971.52,-105.93 960.97,-104.9 968.57,-112.28 971.52,-105.93"/>
</g>
<!-- 18&#45;&gt;20 -->
<g id="edge28" class="edge">
<title>18&#45;&gt;20</title>
<path fill="none" stroke="grey" stroke-width="2" d="M1065.69,-143.7C1057.69,-135.22 1047.93,-124.86 1039.18,-115.58"/>
<polygon fill="grey" stroke="grey" stroke-width="2" points="1041.53,-112.98 1032.13,-108.1 1036.44,-117.78 1041.53,-112.98"/>
</g>
<!-- 19&#45;&gt;0 -->
<g id="edge3" class="edge">
<title>19&#45;&gt;0</title>
<path fill="none" stroke="grey" stroke-width="2" d="M691.25,-73.29C718.87,-61.64 756.32,-45.85 783.71,-34.3"/>
<polygon fill="grey" stroke="grey" stroke-width="2" points="785.09,-37.52 792.94,-30.41 782.37,-31.07 785.09,-37.52"/>
</g>
<!-- 20&#45;&gt;0 -->
<g id="edge4" class="edge">
<title>20&#45;&gt;0</title>
<path fill="none" stroke="grey" stroke-width="2" d="M978.81,-75.53C975.49,-74.33 972.19,-73.14 969,-72 930.81,-58.3 887.05,-42.75 856.89,-32.06"/>
<polygon fill="grey" stroke="grey" stroke-width="2" points="857.8,-28.67 847.2,-28.63 855.46,-35.27 857.8,-28.67"/>
</g>
</g>
</svg>
