<?xml version="1.0" encoding="UTF-8" standalone="no"?>
<!DOCTYPE svg PUBLIC "-//W3C//DTD SVG 1.1//EN"
 "http://www.w3.org/Graphics/SVG/1.1/DTD/svg11.dtd">
<!-- Generated by graphviz version 2.42.3 (20191010.1750)
 -->
<!-- Title: snakemake_dag Pages: 1 -->
<svg width="845pt" height="404pt"
 viewBox="0.00 0.00 844.50 404.00" xmlns="http://www.w3.org/2000/svg" xmlns:xlink="http://www.w3.org/1999/xlink">
<g id="graph0" class="graph" transform="scale(1 1) rotate(0) translate(4 400)">
<title>snakemake_dag</title>
<polygon fill="white" stroke="transparent" points="-4,4 -4,-400 840.5,-400 840.5,4 -4,4"/>
<!-- 0 -->
<g id="node1" class="node">
<title>0</title>
<path fill="none" stroke="#d88d56" stroke-width="2" d="M430,-36C430,-36 400,-36 400,-36 394,-36 388,-30 388,-24 388,-24 388,-12 388,-12 388,-6 394,0 400,0 400,0 430,0 430,0 436,0 442,-6 442,-12 442,-12 442,-24 442,-24 442,-30 436,-36 430,-36"/>
<text text-anchor="middle" x="415" y="-15.5" font-family="sans" font-size="10.00">all</text>
</g>
<!-- 1 -->
<g id="node2" class="node">
<title>1</title>
<path fill="none" stroke="#d8bc56" stroke-width="2" d="M388.5,-180C388.5,-180 353.5,-180 353.5,-180 347.5,-180 341.5,-174 341.5,-168 341.5,-168 341.5,-156 341.5,-156 341.5,-150 347.5,-144 353.5,-144 353.5,-144 388.5,-144 388.5,-144 394.5,-144 400.5,-150 400.5,-156 400.5,-156 400.5,-168 400.5,-168 400.5,-174 394.5,-180 388.5,-180"/>
<text text-anchor="middle" x="371" y="-159.5" font-family="sans" font-size="10.00">assemble</text>
</g>
<!-- 1&#45;&gt;0 -->
<g id="edge1" class="edge">
<title>1&#45;&gt;0</title>
<path fill="none" stroke="grey" stroke-width="2" d="M376.31,-143.87C383.84,-119.56 397.7,-74.82 406.63,-46.01"/>
<polygon fill="grey" stroke="grey" stroke-width="2" points="410.06,-46.78 409.67,-36.19 403.37,-44.71 410.06,-46.78"/>
</g>
<!-- 2 -->
<g id="node3" class="node">
<title>2</title>
<path fill="none" stroke="#56d88a" stroke-width="2" d="M395,-252C395,-252 329,-252 329,-252 323,-252 317,-246 317,-240 317,-240 317,-228 317,-228 317,-222 323,-216 329,-216 329,-216 395,-216 395,-216 401,-216 407,-222 407,-228 407,-228 407,-240 407,-240 407,-246 401,-252 395,-252"/>
<text text-anchor="middle" x="362" y="-231.5" font-family="sans" font-size="10.00">merge_r1_reads</text>
</g>
<!-- 2&#45;&gt;1 -->
<g id="edge3" class="edge">
<title>2&#45;&gt;1</title>
<path fill="none" stroke="grey" stroke-width="2" d="M364.22,-215.7C365.22,-207.98 366.41,-198.71 367.51,-190.11"/>
<polygon fill="grey" stroke="grey" stroke-width="2" points="371,-190.47 368.8,-180.1 364.05,-189.58 371,-190.47"/>
</g>
<!-- 11 -->
<g id="node12" class="node">
<title>11</title>
<path fill="none" stroke="#d85656" stroke-width="2" d="M491.5,-180C491.5,-180 430.5,-180 430.5,-180 424.5,-180 418.5,-174 418.5,-168 418.5,-168 418.5,-156 418.5,-156 418.5,-150 424.5,-144 430.5,-144 430.5,-144 491.5,-144 491.5,-144 497.5,-144 503.5,-150 503.5,-156 503.5,-156 503.5,-168 503.5,-168 503.5,-174 497.5,-180 491.5,-180"/>
<text text-anchor="middle" x="461" y="-159.5" font-family="sans" font-size="10.00">fastqc_trimmed</text>
</g>
<!-- 2&#45;&gt;11 -->
<g id="edge14" class="edge">
<title>2&#45;&gt;11</title>
<path fill="none" stroke="grey" stroke-width="2" d="M386.22,-215.88C398.92,-206.89 414.66,-195.76 428.42,-186.03"/>
<polygon fill="grey" stroke="grey" stroke-width="2" points="430.54,-188.82 436.69,-180.19 426.5,-183.11 430.54,-188.82"/>
</g>
<!-- 3 -->
<g id="node4" class="node">
<title>3</title>
<path fill="none" stroke="#56d8c1" stroke-width="2" d="M395,-324C395,-324 315,-324 315,-324 309,-324 303,-318 303,-312 303,-312 303,-300 303,-300 303,-294 309,-288 315,-288 315,-288 395,-288 395,-288 401,-288 407,-294 407,-300 407,-300 407,-312 407,-312 407,-318 401,-324 395,-324"/>
<text text-anchor="middle" x="355" y="-309" font-family="sans" font-size="10.00">first_fastp</text>
<text text-anchor="middle" x="355" y="-298" font-family="sans" font-size="10.00">sample: NTM01067</text>
</g>
<!-- 3&#45;&gt;2 -->
<g id="edge5" class="edge">
<title>3&#45;&gt;2</title>
<path fill="none" stroke="grey" stroke-width="2" d="M356.73,-287.7C357.5,-279.98 358.43,-270.71 359.29,-262.11"/>
<polygon fill="grey" stroke="grey" stroke-width="2" points="362.78,-262.4 360.29,-252.1 355.81,-261.71 362.78,-262.4"/>
</g>
<!-- 9 -->
<g id="node10" class="node">
<title>9</title>
<path fill="none" stroke="#59d856" stroke-width="2" d="M503,-252C503,-252 437,-252 437,-252 431,-252 425,-246 425,-240 425,-240 425,-228 425,-228 425,-222 431,-216 437,-216 437,-216 503,-216 503,-216 509,-216 515,-222 515,-228 515,-228 515,-240 515,-240 515,-246 509,-252 503,-252"/>
<text text-anchor="middle" x="470" y="-231.5" font-family="sans" font-size="10.00">merge_r2_reads</text>
</g>
<!-- 3&#45;&gt;9 -->
<g id="edge11" class="edge">
<title>3&#45;&gt;9</title>
<path fill="none" stroke="grey" stroke-width="2" d="M383.13,-287.88C398.17,-278.72 416.87,-267.34 433.06,-257.48"/>
<polygon fill="grey" stroke="grey" stroke-width="2" points="435.04,-260.38 441.76,-252.19 431.4,-254.4 435.04,-260.38"/>
</g>
<!-- 4 -->
<g id="node5" class="node">
<title>4</title>
<path fill="none" stroke="#bed856" stroke-width="2" d="M182,-396C182,-396 12,-396 12,-396 6,-396 0,-390 0,-384 0,-384 0,-372 0,-372 0,-366 6,-360 12,-360 12,-360 182,-360 182,-360 188,-360 194,-366 194,-372 194,-372 194,-384 194,-384 194,-390 188,-396 182,-396"/>
<text text-anchor="middle" x="97" y="-381" font-family="sans" font-size="10.00">ftp_first</text>
<text text-anchor="middle" x="97" y="-370" font-family="sans" font-size="10.00">file_f: NTM01067_S99_R1_001.fastq.gz</text>
</g>
<!-- 4&#45;&gt;3 -->
<g id="edge7" class="edge">
<title>4&#45;&gt;3</title>
<path fill="none" stroke="grey" stroke-width="2" d="M159.78,-359.97C200.3,-348.97 252.76,-334.74 293.1,-323.79"/>
<polygon fill="grey" stroke="grey" stroke-width="2" points="294.08,-327.16 302.82,-321.16 292.25,-320.4 294.08,-327.16"/>
</g>
<!-- 5 -->
<g id="node6" class="node">
<title>5</title>
<path fill="none" stroke="#bed856" stroke-width="2" d="M394,-396C394,-396 224,-396 224,-396 218,-396 212,-390 212,-384 212,-384 212,-372 212,-372 212,-366 218,-360 224,-360 224,-360 394,-360 394,-360 400,-360 406,-366 406,-372 406,-372 406,-384 406,-384 406,-390 400,-396 394,-396"/>
<text text-anchor="middle" x="309" y="-381" font-family="sans" font-size="10.00">ftp_first</text>
<text text-anchor="middle" x="309" y="-370" font-family="sans" font-size="10.00">file_f: NTM01067_S99_R2_001.fastq.gz</text>
</g>
<!-- 5&#45;&gt;3 -->
<g id="edge8" class="edge">
<title>5&#45;&gt;3</title>
<path fill="none" stroke="grey" stroke-width="2" d="M320.37,-359.7C325.72,-351.56 332.2,-341.69 338.11,-332.7"/>
<polygon fill="grey" stroke="grey" stroke-width="2" points="341.19,-334.38 343.76,-324.1 335.34,-330.54 341.19,-334.38"/>
</g>
<!-- 6 -->
<g id="node7" class="node">
<title>6</title>
<path fill="none" stroke="#568ad8" stroke-width="2" d="M540,-324C540,-324 460,-324 460,-324 454,-324 448,-318 448,-312 448,-312 448,-300 448,-300 448,-294 454,-288 460,-288 460,-288 540,-288 540,-288 546,-288 552,-294 552,-300 552,-300 552,-312 552,-312 552,-318 546,-324 540,-324"/>
<text text-anchor="middle" x="500" y="-309" font-family="sans" font-size="10.00">second_fastp</text>
<text text-anchor="middle" x="500" y="-298" font-family="sans" font-size="10.00">sample: NTM01067</text>
</g>
<!-- 6&#45;&gt;2 -->
<g id="edge6" class="edge">
<title>6&#45;&gt;2</title>
<path fill="none" stroke="grey" stroke-width="2" d="M466.24,-287.88C447.78,-278.51 424.72,-266.81 404.98,-256.8"/>
<polygon fill="grey" stroke="grey" stroke-width="2" points="406.39,-253.59 395.89,-252.19 403.22,-259.83 406.39,-253.59"/>
</g>
<!-- 6&#45;&gt;9 -->
<g id="edge12" class="edge">
<title>6&#45;&gt;9</title>
<path fill="none" stroke="grey" stroke-width="2" d="M492.58,-287.7C489.21,-279.81 485.13,-270.3 481.38,-261.55"/>
<polygon fill="grey" stroke="grey" stroke-width="2" points="484.49,-259.92 477.33,-252.1 478.05,-262.67 484.49,-259.92"/>
</g>
<!-- 7 -->
<g id="node8" class="node">
<title>7</title>
<path fill="none" stroke="#88d856" stroke-width="2" d="M609.5,-396C609.5,-396 436.5,-396 436.5,-396 430.5,-396 424.5,-390 424.5,-384 424.5,-384 424.5,-372 424.5,-372 424.5,-366 430.5,-360 436.5,-360 436.5,-360 609.5,-360 609.5,-360 615.5,-360 621.5,-366 621.5,-372 621.5,-372 621.5,-384 621.5,-384 621.5,-390 615.5,-396 609.5,-396"/>
<text text-anchor="middle" x="523" y="-381" font-family="sans" font-size="10.00">ftp_second</text>
<text text-anchor="middle" x="523" y="-370" font-family="sans" font-size="10.00">file_s: NTM01067_S82_R1_001.fastq.gz</text>
</g>
<!-- 7&#45;&gt;6 -->
<g id="edge9" class="edge">
<title>7&#45;&gt;6</title>
<path fill="none" stroke="grey" stroke-width="2" d="M517.31,-359.7C514.75,-351.9 511.67,-342.51 508.82,-333.83"/>
<polygon fill="grey" stroke="grey" stroke-width="2" points="512.07,-332.51 505.62,-324.1 505.42,-334.7 512.07,-332.51"/>
</g>
<!-- 8 -->
<g id="node9" class="node">
<title>8</title>
<path fill="none" stroke="#88d856" stroke-width="2" d="M824.5,-396C824.5,-396 651.5,-396 651.5,-396 645.5,-396 639.5,-390 639.5,-384 639.5,-384 639.5,-372 639.5,-372 639.5,-366 645.5,-360 651.5,-360 651.5,-360 824.5,-360 824.5,-360 830.5,-360 836.5,-366 836.5,-372 836.5,-372 836.5,-384 836.5,-384 836.5,-390 830.5,-396 824.5,-396"/>
<text text-anchor="middle" x="738" y="-381" font-family="sans" font-size="10.00">ftp_second</text>
<text text-anchor="middle" x="738" y="-370" font-family="sans" font-size="10.00">file_s: NTM01067_S82_R2_001.fastq.gz</text>
</g>
<!-- 8&#45;&gt;6 -->
<g id="edge10" class="edge">
<title>8&#45;&gt;6</title>
<path fill="none" stroke="grey" stroke-width="2" d="M680.08,-359.97C644.36,-349.46 598.57,-335.99 562.1,-325.27"/>
<polygon fill="grey" stroke="grey" stroke-width="2" points="562.66,-321.78 552.08,-322.32 560.69,-328.5 562.66,-321.78"/>
</g>
<!-- 9&#45;&gt;1 -->
<g id="edge4" class="edge">
<title>9&#45;&gt;1</title>
<path fill="none" stroke="grey" stroke-width="2" d="M445.78,-215.88C433.08,-206.89 417.34,-195.76 403.58,-186.03"/>
<polygon fill="grey" stroke="grey" stroke-width="2" points="405.5,-183.11 395.31,-180.19 401.46,-188.82 405.5,-183.11"/>
</g>
<!-- 9&#45;&gt;11 -->
<g id="edge15" class="edge">
<title>9&#45;&gt;11</title>
<path fill="none" stroke="grey" stroke-width="2" d="M467.78,-215.7C466.78,-207.98 465.59,-198.71 464.49,-190.11"/>
<polygon fill="grey" stroke="grey" stroke-width="2" points="467.95,-189.58 463.2,-180.1 461,-190.47 467.95,-189.58"/>
</g>
<!-- 10 -->
<g id="node11" class="node">
<title>10</title>
<path fill="none" stroke="#56c1d8" stroke-width="2" d="M489,-108C489,-108 423,-108 423,-108 417,-108 411,-102 411,-96 411,-96 411,-84 411,-84 411,-78 417,-72 423,-72 423,-72 489,-72 489,-72 495,-72 501,-78 501,-84 501,-84 501,-96 501,-96 501,-102 495,-108 489,-108"/>
<text text-anchor="middle" x="456" y="-87.5" font-family="sans" font-size="10.00">multiqc_trimmed</text>
</g>
<!-- 10&#45;&gt;0 -->
<g id="edge2" class="edge">
<title>10&#45;&gt;0</title>
<path fill="none" stroke="grey" stroke-width="2" d="M445.87,-71.7C441.15,-63.64 435.44,-53.89 430.22,-44.98"/>
<polygon fill="grey" stroke="grey" stroke-width="2" points="433.09,-42.96 425.02,-36.1 427.05,-46.5 433.09,-42.96"/>
</g>
<!-- 11&#45;&gt;10 -->
<g id="edge13" class="edge">
<title>11&#45;&gt;10</title>
<path fill="none" stroke="grey" stroke-width="2" d="M459.76,-143.7C459.21,-135.98 458.55,-126.71 457.94,-118.11"/>
<polygon fill="grey" stroke="grey" stroke-width="2" points="461.43,-117.83 457.22,-108.1 454.44,-118.33 461.43,-117.83"/>
</g>
</g>
</svg>
