<?xml version="1.0" encoding="UTF-8" standalone="no"?>
<!DOCTYPE svg PUBLIC "-//W3C//DTD SVG 1.1//EN"
 "http://www.w3.org/Graphics/SVG/1.1/DTD/svg11.dtd">
<!-- Generated by graphviz version 2.42.3 (20191010.1750)
 -->
<!-- Title: snakemake_dag Pages: 1 -->
<svg width="208pt" height="404pt"
 viewBox="0.00 0.00 208.00 404.00" xmlns="http://www.w3.org/2000/svg" xmlns:xlink="http://www.w3.org/1999/xlink">
<g id="graph0" class="graph" transform="scale(1 1) rotate(0) translate(4 400)">
<title>snakemake_dag</title>
<polygon fill="white" stroke="transparent" points="-4,4 -4,-400 204,-400 204,4 -4,4"/>
<!-- 0 -->
<g id="node1" class="node">
<title>0</title>
<path fill="none" stroke="#d8bc56" stroke-width="2" d="M113.5,-36C113.5,-36 83.5,-36 83.5,-36 77.5,-36 71.5,-30 71.5,-24 71.5,-24 71.5,-12 71.5,-12 71.5,-6 77.5,0 83.5,0 83.5,0 113.5,0 113.5,0 119.5,0 125.5,-6 125.5,-12 125.5,-12 125.5,-24 125.5,-24 125.5,-30 119.5,-36 113.5,-36"/>
<text text-anchor="middle" x="98.5" y="-15.5" font-family="sans" font-size="10.00">all</text>
</g>
<!-- 1 -->
<g id="node2" class="node">
<title>1</title>
<path fill="none" stroke="#56d8c1" stroke-width="2" d="M72,-180C72,-180 37,-180 37,-180 31,-180 25,-174 25,-168 25,-168 25,-156 25,-156 25,-150 31,-144 37,-144 37,-144 72,-144 72,-144 78,-144 84,-150 84,-156 84,-156 84,-168 84,-168 84,-174 78,-180 72,-180"/>
<text text-anchor="middle" x="54.5" y="-159.5" font-family="sans" font-size="10.00">assemble</text>
</g>
<!-- 1&#45;&gt;0 -->
<g id="edge1" class="edge">
<title>1&#45;&gt;0</title>
<path fill="none" stroke="grey" stroke-width="2" d="M59.81,-143.87C67.34,-119.56 81.2,-74.82 90.13,-46.01"/>
<polygon fill="grey" stroke="grey" stroke-width="2" points="93.56,-46.78 93.17,-36.19 86.87,-44.71 93.56,-46.78"/>
</g>
<!-- 2 -->
<g id="node3" class="node">
<title>2</title>
<path fill="none" stroke="#bed856" stroke-width="2" d="M79,-252C79,-252 12,-252 12,-252 6,-252 0,-246 0,-240 0,-240 0,-228 0,-228 0,-222 6,-216 12,-216 12,-216 79,-216 79,-216 85,-216 91,-222 91,-228 91,-228 91,-240 91,-240 91,-246 85,-252 79,-252"/>
<text text-anchor="middle" x="45.5" y="-231.5" font-family="sans" font-size="10.00">concat_r1_reads</text>
</g>
<!-- 2&#45;&gt;1 -->
<g id="edge4" class="edge">
<title>2&#45;&gt;1</title>
<path fill="none" stroke="grey" stroke-width="2" d="M47.72,-215.7C48.72,-207.98 49.91,-198.71 51.01,-190.11"/>
<polygon fill="grey" stroke="grey" stroke-width="2" points="54.5,-190.47 52.3,-180.1 47.55,-189.58 54.5,-190.47"/>
</g>
<!-- 9 -->
<g id="node10" class="node">
<title>9</title>
<path fill="none" stroke="#59d856" stroke-width="2" d="M175,-180C175,-180 114,-180 114,-180 108,-180 102,-174 102,-168 102,-168 102,-156 102,-156 102,-150 108,-144 114,-144 114,-144 175,-144 175,-144 181,-144 187,-150 187,-156 187,-156 187,-168 187,-168 187,-174 181,-180 175,-180"/>
<text text-anchor="middle" x="144.5" y="-159.5" font-family="sans" font-size="10.00">fastqc_trimmed</text>
</g>
<!-- 2&#45;&gt;9 -->
<g id="edge13" class="edge">
<title>2&#45;&gt;9</title>
<path fill="none" stroke="grey" stroke-width="2" d="M69.72,-215.88C82.42,-206.89 98.16,-195.76 111.92,-186.03"/>
<polygon fill="grey" stroke="grey" stroke-width="2" points="114.04,-188.82 120.19,-180.19 110,-183.11 114.04,-188.82"/>
</g>
<!-- 3 -->
<g id="node4" class="node">
<title>3</title>
<path fill="none" stroke="#568ad8" stroke-width="2" d="M74.5,-324C74.5,-324 38.5,-324 38.5,-324 32.5,-324 26.5,-318 26.5,-312 26.5,-312 26.5,-300 26.5,-300 26.5,-294 32.5,-288 38.5,-288 38.5,-288 74.5,-288 74.5,-288 80.5,-288 86.5,-294 86.5,-300 86.5,-300 86.5,-312 86.5,-312 86.5,-318 80.5,-324 74.5,-324"/>
<text text-anchor="middle" x="56.5" y="-303.5" font-family="sans" font-size="10.00">first_fastp</text>
</g>
<!-- 3&#45;&gt;2 -->
<g id="edge6" class="edge">
<title>3&#45;&gt;2</title>
<path fill="none" stroke="grey" stroke-width="2" d="M53.78,-287.7C52.57,-279.98 51.11,-270.71 49.76,-262.11"/>
<polygon fill="grey" stroke="grey" stroke-width="2" points="53.2,-261.44 48.19,-252.1 46.28,-262.53 53.2,-261.44"/>
</g>
<!-- 7 -->
<g id="node8" class="node">
<title>7</title>
<path fill="none" stroke="#d85656" stroke-width="2" d="M188,-252C188,-252 121,-252 121,-252 115,-252 109,-246 109,-240 109,-240 109,-228 109,-228 109,-222 115,-216 121,-216 121,-216 188,-216 188,-216 194,-216 200,-222 200,-228 200,-228 200,-240 200,-240 200,-246 194,-252 188,-252"/>
<text text-anchor="middle" x="154.5" y="-231.5" font-family="sans" font-size="10.00">concat_r2_reads</text>
</g>
<!-- 3&#45;&gt;7 -->
<g id="edge10" class="edge">
<title>3&#45;&gt;7</title>
<path fill="none" stroke="grey" stroke-width="2" d="M80.47,-287.88C93.05,-278.89 108.63,-267.76 122.25,-258.03"/>
<polygon fill="grey" stroke="grey" stroke-width="2" points="124.33,-260.85 130.43,-252.19 120.26,-255.15 124.33,-260.85"/>
</g>
<!-- 4 -->
<g id="node5" class="node">
<title>4</title>
<path fill="none" stroke="#56c1d8" stroke-width="2" d="M71.5,-396C71.5,-396 41.5,-396 41.5,-396 35.5,-396 29.5,-390 29.5,-384 29.5,-384 29.5,-372 29.5,-372 29.5,-366 35.5,-360 41.5,-360 41.5,-360 71.5,-360 71.5,-360 77.5,-360 83.5,-366 83.5,-372 83.5,-372 83.5,-384 83.5,-384 83.5,-390 77.5,-396 71.5,-396"/>
<text text-anchor="middle" x="56.5" y="-375.5" font-family="sans" font-size="10.00">ftp_first</text>
</g>
<!-- 4&#45;&gt;3 -->
<g id="edge7" class="edge">
<title>4&#45;&gt;3</title>
<path fill="none" stroke="grey" stroke-width="2" d="M56.5,-359.7C56.5,-351.98 56.5,-342.71 56.5,-334.11"/>
<polygon fill="grey" stroke="grey" stroke-width="2" points="60,-334.1 56.5,-324.1 53,-334.1 60,-334.1"/>
</g>
<!-- 5 -->
<g id="node6" class="node">
<title>5</title>
<path fill="none" stroke="#d88d56" stroke-width="2" d="M174.5,-324C174.5,-324 122.5,-324 122.5,-324 116.5,-324 110.5,-318 110.5,-312 110.5,-312 110.5,-300 110.5,-300 110.5,-294 116.5,-288 122.5,-288 122.5,-288 174.5,-288 174.5,-288 180.5,-288 186.5,-294 186.5,-300 186.5,-300 186.5,-312 186.5,-312 186.5,-318 180.5,-324 174.5,-324"/>
<text text-anchor="middle" x="148.5" y="-303.5" font-family="sans" font-size="10.00">second_fastp</text>
</g>
<!-- 5&#45;&gt;2 -->
<g id="edge5" class="edge">
<title>5&#45;&gt;2</title>
<path fill="none" stroke="grey" stroke-width="2" d="M123.3,-287.88C110.09,-278.89 93.71,-267.76 79.39,-258.03"/>
<polygon fill="grey" stroke="grey" stroke-width="2" points="81.03,-254.92 70.79,-252.19 77.1,-260.71 81.03,-254.92"/>
</g>
<!-- 5&#45;&gt;7 -->
<g id="edge9" class="edge">
<title>5&#45;&gt;7</title>
<path fill="none" stroke="grey" stroke-width="2" d="M149.98,-287.7C150.64,-279.98 151.44,-270.71 152.18,-262.11"/>
<polygon fill="grey" stroke="grey" stroke-width="2" points="155.67,-262.37 153.03,-252.1 148.69,-261.77 155.67,-262.37"/>
</g>
<!-- 6 -->
<g id="node7" class="node">
<title>6</title>
<path fill="none" stroke="#56d88a" stroke-width="2" d="M169,-396C169,-396 128,-396 128,-396 122,-396 116,-390 116,-384 116,-384 116,-372 116,-372 116,-366 122,-360 128,-360 128,-360 169,-360 169,-360 175,-360 181,-366 181,-372 181,-372 181,-384 181,-384 181,-390 175,-396 169,-396"/>
<text text-anchor="middle" x="148.5" y="-375.5" font-family="sans" font-size="10.00">ftp_second</text>
</g>
<!-- 6&#45;&gt;5 -->
<g id="edge8" class="edge">
<title>6&#45;&gt;5</title>
<path fill="none" stroke="grey" stroke-width="2" d="M148.5,-359.7C148.5,-351.98 148.5,-342.71 148.5,-334.11"/>
<polygon fill="grey" stroke="grey" stroke-width="2" points="152,-334.1 148.5,-324.1 145,-334.1 152,-334.1"/>
</g>
<!-- 7&#45;&gt;1 -->
<g id="edge3" class="edge">
<title>7&#45;&gt;1</title>
<path fill="none" stroke="grey" stroke-width="2" d="M130.04,-215.88C117.2,-206.89 101.3,-195.76 87.41,-186.03"/>
<polygon fill="grey" stroke="grey" stroke-width="2" points="89.26,-183.06 79.06,-180.19 85.24,-188.79 89.26,-183.06"/>
</g>
<!-- 7&#45;&gt;9 -->
<g id="edge12" class="edge">
<title>7&#45;&gt;9</title>
<path fill="none" stroke="grey" stroke-width="2" d="M152.03,-215.7C150.93,-207.98 149.6,-198.71 148.37,-190.11"/>
<polygon fill="grey" stroke="grey" stroke-width="2" points="151.82,-189.51 146.94,-180.1 144.89,-190.5 151.82,-189.51"/>
</g>
<!-- 8 -->
<g id="node9" class="node">
<title>8</title>
<path fill="none" stroke="#88d856" stroke-width="2" d="M172.5,-108C172.5,-108 106.5,-108 106.5,-108 100.5,-108 94.5,-102 94.5,-96 94.5,-96 94.5,-84 94.5,-84 94.5,-78 100.5,-72 106.5,-72 106.5,-72 172.5,-72 172.5,-72 178.5,-72 184.5,-78 184.5,-84 184.5,-84 184.5,-96 184.5,-96 184.5,-102 178.5,-108 172.5,-108"/>
<text text-anchor="middle" x="139.5" y="-87.5" font-family="sans" font-size="10.00">multiqc_trimmed</text>
</g>
<!-- 8&#45;&gt;0 -->
<g id="edge2" class="edge">
<title>8&#45;&gt;0</title>
<path fill="none" stroke="grey" stroke-width="2" d="M129.37,-71.7C124.65,-63.64 118.94,-53.89 113.72,-44.98"/>
<polygon fill="grey" stroke="grey" stroke-width="2" points="116.59,-42.96 108.52,-36.1 110.55,-46.5 116.59,-42.96"/>
</g>
<!-- 9&#45;&gt;8 -->
<g id="edge11" class="edge">
<title>9&#45;&gt;8</title>
<path fill="none" stroke="grey" stroke-width="2" d="M143.26,-143.7C142.71,-135.98 142.05,-126.71 141.44,-118.11"/>
<polygon fill="grey" stroke="grey" stroke-width="2" points="144.93,-117.83 140.72,-108.1 137.94,-118.33 144.93,-117.83"/>
</g>
</g>
</svg>
